<svg style="display: none;">
  <!-- Angular SVG -->
  <symbol id="angular-icon" viewBox="0 0 50 50">
    <path d="M46.321,9.209L25.254,2.053c-0.21-0.07-0.439-0.069-0.65,0.003L3.671,9.341C3.227,9.495,2.95,9.939,3.008,10.406l3.308,27.123c0.039,0.321,0.23,0.604,0.515,0.758l17.647,9.592C24.626,47.96,24.791,48,24.955,48c0.165,0,0.331-0.041,0.48-0.123l17.738-9.722c0.282-0.155,0.474-0.437,0.512-0.756l3.307-27.122C47.05,9.808,46.77,9.361,46.321,9.209z M33.563,35l-2.782-5.993H19.219L16.437,35H12L25,7l13,28H33.563z"/>
    <polygon points="28.92,25 25,16.5 21.08,25 "/>
  </symbol>
  <!-- Css3 SVG -->
  <symbol id="css3-icon" viewBox="0 0 50 50">
    <path d="M39,40l-14,4l-14,-4l-3,-34l34,0c-1,11.333 -2,22.667 -3,34Zm0.816,-32l-29.632,0l2.687,30.455l12.129,3.465l12.129,-3.465l2.687,-30.455Zm-23.016,20l4,0l0.1,2.5l4.1,1.4l4.1,-1.4l0.3,-4.5l-8.8,0l-0.2,-4l9.2,0l0.3,-4l-13.8,0l-0.3,-4l18.3,0l-0.5,8l-0.7,11.5l-7.9,2.6l-7.9,-2.6l-0.3,-5.5Z"/>
  </symbol>
  <!-- Git SVG -->
  <symbol id="git-icon" viewBox="0 0 50 50">
    <path d="M46.794,22.088L27.912,3.206C27.108,2.402,26.054,2,25,2s-2.108,0.402-2.912,1.206L18.354,6.94l4.624,4.624c1.533-0.902,3.533-0.709,4.85,0.607c1.316,1.316,1.509,3.316,0.607,4.85l4.543,4.543c1.533-0.902,3.533-0.709,4.85,0.607c1.562,1.562,1.562,4.095,0,5.657c-1.562,1.562-4.095,1.562-5.657,0c-1.316-1.316-1.509-3.316-0.607-4.85l-4.543-4.543c-0.324,0.19-0.666,0.33-1.021,0.421v12.285c1.722,0.446,3,1.997,3,3.859c0,2.209-1.791,4-4,4s-4-1.791-4-4c0-1.862,1.278-3.413,3-3.859V18.857c-0.669-0.173-1.305-0.505-1.828-1.028c-1.316-1.316-1.509-3.316-0.607-4.85L16.94,8.354L3.206,22.088c-1.608,1.608-1.608,4.215,0,5.823l18.882,18.882C22.892,47.598,23.946,48,25,48s2.108-0.402,2.912-1.206l18.882-18.882C48.402,26.304,48.402,23.696,46.794,22.088z"/>
  </symbol>
  <!-- HTML5 SVG -->
  <symbol id="html5-icon" viewBox="0 0 50 50">
    <path d="M40,41l-14,4l-14-4L9,7h34C42,18.333,41,29.667,40,41z M40.816,9H11.184l2.687,30.455L26,42.92l12.129-3.465
	C38.129,39.455,40.816,9,40.816,9z"/>
    <polygon points="34.75,23 33.76,35 25.99,37 18.23,35 17.84,30 21.7,30 21.88,32 26,32.62 30.17,32 30.58,27 17.59,27 18.55,15 
	34,15 34.7,21 31,21 30.77,19 22.41,19 22.09,23 "/>
  </symbol>
  <!-- Java SVG -->
  <symbol id="java-icon" viewBox="0 0 50 50">
    <g>
      <path d="M24.646,26.121c-1.302-2.014-2.242-3.68-3.548-6.817c-2.208-5.306,13.433-10.1,7.087-19.306c2.75,6.363-9.863,10.291-11.034,15.593C16.075,20.462,24.639,26.121,24.646,26.121z"/>
      <path d="M24.942,16.583c-0.251,3.148,2.903,4.828,2.993,7.119c0.073,1.871-1.885,3.428-1.885,3.428s3.552-0.667,4.662-3.524c1.231-3.167-2.386-5.331-2.019-7.867c0.351-2.426,7.858-6.928,7.858-6.928S25.505,9.511,24.942,16.583z"/>
      <path d="M35.625,26.315c2.283-0.492,4.211,0.904,4.211,2.515c0,3.624-5.236,7.049-5.236,7.049s8.108-0.927,8.108-6.881C42.708,25.065,38.725,24.084,35.625,26.315z"/>
      <path d="M31.779,29.24c0,0,2.529-1.73,3.201-2.376c-6.202,1.264-20.36,1.432-20.36,0.337c0-1.009,4.563-2.049,4.563-2.049s-10.12-0.139-10.12,2.726C9.064,30.869,22.315,31.08,31.779,29.24z"/>
      <path d="M30.223,31.96c-5.867,1.878-16.685,1.276-13.483-1.238c-1.554,0-3.87,1.202-3.87,2.357c0,2.325,11.693,4.115,20.349,0.719L30.223,31.96z"/>
      <path d="M18.18,35.922c-2.128,0-3.509,1.315-3.509,2.28c0,2.985,12.708,3.286,17.744,0.251l-3.2-2.037C25.454,38.007,16.008,38.222,18.18,35.922z"/>
      <path d="M40.89,40.924c0-1.167-1.374-1.721-1.87-1.986c2.901,6.718-29.052,6.196-29.052,2.233c0-0.904,2.347-1.787,4.525-1.365l-1.848-1.049c-4.335-0.655-7.279,1.171-7.279,2.648C5.365,48.281,40.89,47.95,40.89,40.924z"/>
      <path d="M44.635,43.25c-5.4,5.119-19.089,6.984-32.853,3.823C25.545,52.704,44.567,49.536,44.635,43.25z"/>
    </g>
  </symbol>
  <!-- Javascript SVG -->
  <symbol id="javascript-icon" viewBox="0 0 50 50">
    <path d="M43.334,4H6.667C5.196,4,4,5.196,4,6.667v36.666C4,44.804,5.196,46,6.667,46h36.666C44.804,46,46,44.804,46,43.334V6.667C46,5.196,44.804,4,43.334,4z M27,36.182C27,40.18,24.656,42,21.234,42c-3.092,0-5.324-2.073-6.234-4l3.143-1.903C18.75,37.173,19.673,38,21,38c1.269,0,2-0.496,2-2.426V23h4V36.182z M35.677,42c-3.544,0-5.557-1.787-6.677-4l3-2c0.818,1.335,1.707,2.614,3.589,2.614c1.581,0,2.411-0.79,2.411-1.882c0-1.308-0.858-1.772-2.598-2.533l-0.954-0.409c-2.753-1.173-4.583-2.643-4.583-5.749c0-2.862,2.18-5.04,5.588-5.04c2.426,0,4.17,0.844,5.427,3.055l-2.971,1.908c-0.654-1.173-1.36-1.635-2.456-1.635c-1.118,0-1.826,0.709-1.826,1.635c0,1.145,0.709,1.608,2.346,2.317l0.954,0.409C40.17,32.079,42,33.496,42,36.683C42,40.118,39.301,42,35.677,42z"/>
  </symbol>
  <!-- Numpy SVG -->
  <symbol id="numpy-icon" viewBox="0 0 50 50">
    <path d="M43.334,4H6.667C5.196,4,4,5.196,4,6.667v36.666C4,44.804,5.196,46,6.667,46h36.666C44.804,46,46,44.804,46,43.334V6.667C46,5.196,44.804,4,43.334,4z M27,36.182C27,40.18,24.656,42,21.234,42c-3.092,0-5.324-2.073-6.234-4l3.143-1.903C18.75,37.173,19.673,38,21,38c1.269,0,2-0.496,2-2.426V23h4V36.182z M35.677,42c-3.544,0-5.557-1.787-6.677-4l3-2c0.818,1.335,1.707,2.614,3.589,2.614c1.581,0,2.411-0.79,2.411-1.882c0-1.308-0.858-1.772-2.598-2.533l-0.954-0.409c-2.753-1.173-4.583-2.643-4.583-5.749c0-2.862,2.18-5.04,5.588-5.04c2.426,0,4.17,0.844,5.427,3.055l-2.971,1.908c-0.654-1.173-1.36-1.635-2.456-1.635c-1.118,0-1.826,0.709-1.826,1.635c0,1.145,0.709,1.608,2.346,2.317l0.954,0.409C40.17,32.079,42,33.496,42,36.683C42,40.118,39.301,42,35.677,42z"/>
    <g fill="#000000" fill-rule="nonzero" stroke="none" stroke-width="1" stroke-linecap="butt" stroke-linejoin="miter" stroke-miterlimit="10" stroke-dasharray="" stroke-dashoffset="0" font-family="none" font-weight="none" font-size="none" text-anchor="none" style="mix-blend-mode: normal">
      <g transform="scale(5.33333,5.33333)">
        <path d="M21.196,12.276l-6.804,-3.434l-7.47,3.727l6.99,3.509z"></path>
        <path d="M24.317,13.85l7.134,3.603l-7.402,3.716l-7,-3.515z"></path>
        <path d="M33.846,8.893l7.33,3.676l-6.557,3.291l-7.149,-3.606z"></path>
        <path d="M30.69,7.31l-6.599,-3.31l-6.527,3.258l6.8,3.429z"></path>
        <path d="M25.532,35.725v9.005l7.993,-3.99l-0.007,-9.008z"></path>
        <path d="M33.514,28.587l-0.009,-8.913l-7.973,3.963v8.917z"></path>
        <path d="M43.111,26.918v9.039l-6.819,3.402l-0.005,-8.998z"></path>
        <path d="M43.111,23.756v-8.858l-6.832,3.396l0.006,8.931z"></path>
        <path d="M22.71,23.637l-5.384,-2.708v11.699c0,0 -6.586,-14.012 -7.195,-15.27c-0.079,-0.163 -0.401,-0.341 -0.484,-0.385c-1.187,-0.62 -4.647,-2.372 -4.647,-2.372v20.676l4.787,2.566v-10.812c0,0 6.515,12.52 6.582,12.657c0.067,0.137 0.718,1.455 1.418,1.919c0.929,0.618 4.919,3.016 4.919,3.016z"></path>
      </g>
    </g>
  </symbol>
  <!-- Pandas SVG -->
  <symbol id="pandas-icon" viewBox="0 0 50 50">
    <rect x="18" y="4" width="5" height="10"></rect>
    <rect x="18" y="25" width="5" height="10"></rect>
    <rect x="18" y="17" width="5" height="5"></rect>
    <rect x="10" y="13" width="5" height="33"></rect>
    <rect x="26" y="33" width="5" height="10"></rect>
    <rect x="26" y="12" width="5" height="10"></rect>
    <rect x="26" y="25" width="5" height="5"></rect>
    <rect x="34" y="2" width="5" height="33"></rect>
  </symbol>
  <!-- Sass SVG -->
  <symbol id="sass-icon" viewBox="0 0 50 50">
    <g>
      <path d="M43.03,27.802c-1.747,0.009-3.261,0.429-4.53,1.054c-0.464-0.926-0.934-1.741-1.013-2.347
		c-0.092-0.707-0.199-1.129-0.088-1.972c0.111-0.843,0.599-2.036,0.591-2.125c-0.007-0.089-0.109-0.518-1.117-0.526
		c-1.008-0.007-1.87,0.194-1.972,0.46c-0.102,0.266-0.296,0.865-0.416,1.49c-0.177,0.914-2.012,4.174-3.055,5.879
		c-0.341-0.666-0.631-1.252-0.691-1.716c-0.092-0.707-0.199-1.129-0.088-1.972c0.111-0.843,0.599-2.036,0.591-2.125
		c-0.007-0.089-0.109-0.518-1.117-0.526c-1.008-0.007-1.87,0.194-1.972,0.46c-0.102,0.266-0.21,0.888-0.416,1.49
		c-0.207,0.602-2.647,6.039-3.286,7.448c-0.326,0.718-0.609,1.295-0.809,1.689c-0.001-0.001-0.001-0.002-0.001-0.002
		s-0.012,0.026-0.034,0.071c-0.171,0.335-0.273,0.521-0.273,0.521s0.001,0.003,0.003,0.007c-0.136,0.246-0.281,0.475-0.353,0.475
		c-0.05,0-0.151-0.656,0.022-1.555c0.363-1.886,1.235-4.828,1.227-4.929c-0.004-0.052,0.162-0.564-0.57-0.833
		c-0.711-0.26-0.965,0.174-1.03,0.175c-0.063,0.001-0.11,0.153-0.11,0.153s0.793-3.308-1.512-3.308c-1.44,0-3.436,1.576-4.42,3.004
		c-0.62,0.338-1.948,1.063-3.357,1.837c-0.541,0.297-1.093,0.601-1.617,0.89c-0.036-0.039-0.071-0.079-0.108-0.118
		c-2.794-2.981-7.958-5.089-7.739-9.096c0.08-1.457,0.586-5.293,9.924-9.946c7.649-3.812,13.773-2.763,14.831-0.438
		c1.512,3.321-3.273,9.494-11.216,10.384c-3.027,0.339-4.62-0.834-5.017-1.271c-0.417-0.46-0.479-0.481-0.635-0.394
		c-0.254,0.141-0.093,0.547,0,0.789c0.237,0.617,1.21,1.712,2.87,2.256c1.46,0.479,5.013,0.742,9.311-0.92
		c4.813-1.862,8.571-7.041,7.468-11.37c-1.123-4.403-8.423-5.85-15.332-3.396c-4.112,1.461-8.563,3.754-11.764,6.747
		c-3.806,3.56-4.412,6.658-4.162,7.952c0.889,4.6,7.228,7.595,9.767,9.815c-0.125,0.069-0.243,0.134-0.35,0.193
		c-1.273,0.63-6.105,3.159-7.314,5.831c-1.371,3.031,0.218,5.206,1.271,5.499c3.26,0.907,6.606-0.725,8.404-3.407
		c1.798-2.681,1.578-6.172,0.753-7.766c-0.01-0.02-0.022-0.039-0.032-0.059c0.329-0.195,0.664-0.392,0.996-0.587
		c0.648-0.38,1.284-0.735,1.836-1.036c-0.309,0.846-0.535,1.86-0.653,3.325c-0.138,1.721,0.567,3.945,1.49,4.82
		c0.406,0.385,0.895,0.394,1.205,0.394c1.074,0,1.564-0.893,2.103-1.95c0.662-1.296,1.249-2.804,1.249-2.804
		s-0.737,4.075,1.271,4.075c0.731,0,1.467-0.949,1.795-1.432c0.001,0.005,0.001,0.008,0.001,0.008s0.019-0.031,0.056-0.095
		c0.076-0.116,0.119-0.19,0.119-0.19s0.002-0.008,0.004-0.021c0.294-0.51,0.946-1.674,1.924-3.594
		c1.263-2.48,2.475-5.586,2.475-5.586s0.113,0.76,0.482,2.015c0.217,0.739,0.679,1.556,1.043,2.339
		c-0.293,0.407-0.473,0.64-0.473,0.64s0.002,0.004,0.005,0.012c-0.234,0.311-0.497,0.646-0.772,0.974
		c-0.997,1.188-2.185,2.544-2.344,2.936c-0.187,0.461-0.143,0.801,0.219,1.073c0.264,0.199,0.735,0.23,1.227,0.197
		c0.896-0.06,1.527-0.283,1.838-0.418c0.485-0.171,1.05-0.441,1.58-0.831c0.978-0.719,1.568-1.748,1.512-3.111
		c-0.031-0.751-0.271-1.495-0.574-2.198c0.089-0.128,0.178-0.256,0.267-0.387c1.542-2.255,2.738-4.732,2.738-4.732
		s0.113,0.76,0.482,2.015c0.187,0.636,0.556,1.329,0.887,2.009c-1.45,1.178-2.349,2.547-2.662,3.445
		c-0.577,1.661-0.125,2.414,0.723,2.585c0.384,0.078,0.927-0.098,1.335-0.271c0.508-0.168,1.118-0.449,1.688-0.868
		c0.978-0.719,1.919-1.726,1.862-3.089c-0.026-0.62-0.194-1.236-0.422-1.828c1.229-0.512,2.821-0.797,4.848-0.56
		c4.349,0.508,5.202,3.223,5.039,4.359c-0.163,1.137-1.075,1.761-1.38,1.95c-0.305,0.189-0.398,0.254-0.372,0.394
		c0.037,0.204,0.178,0.196,0.438,0.152c0.358-0.06,2.283-0.924,2.366-3.022C50.102,30.703,47.55,27.778,43.03,27.802z M9.512,39.102
		c-1.44,1.571-3.453,2.165-4.316,1.665c-0.932-0.54-0.563-2.854,1.205-4.521c1.077-1.016,2.468-1.952,3.391-2.529
		c0.21-0.126,0.518-0.312,0.893-0.537c0.062-0.035,0.097-0.055,0.097-0.055l-0.001-0.002c0.072-0.043,0.147-0.088,0.223-0.134
		C11.647,35.363,11.024,37.453,9.512,39.102z M20.005,31.968c-0.502,1.223-1.552,4.352-2.191,4.184
		c-0.549-0.144-0.883-2.523-0.11-4.863c0.389-1.178,1.22-2.586,1.709-3.133c0.786-0.879,1.652-1.167,1.862-0.81
		C21.544,27.8,20.32,31.201,20.005,31.968z M28.675,36.105c-0.213,0.111-0.408,0.181-0.498,0.127
		c-0.067-0.04,0.088-0.186,0.088-0.186s1.084-1.167,1.512-1.698c0.248-0.309,0.537-0.676,0.85-1.086
		c0.003,0.041,0.004,0.082,0.004,0.122C30.627,34.782,29.277,35.725,28.675,36.105z M35.354,34.582
		c-0.159-0.113-0.132-0.478,0.389-1.614c0.205-0.446,0.672-1.198,1.485-1.916c0.094,0.295,0.152,0.578,0.15,0.842
		C37.367,33.653,36.112,34.31,35.354,34.582z"/>
    </g>
  </symbol>
  <!-- Spring SVG -->
  <symbol id="spring-icon" viewBox="0 0 24 24">
    <path d="m20.205 16.392c-2.469 3.289-7.741 2.179-11.122 2.338 0 0-.599.034-1.201.133 0 0 .228-.097.519-.198 2.374-.821 3.496-.986 4.939-1.727 2.71-1.388 5.408-4.413 5.957-7.555-1.032 3.022-4.17 5.623-7.027 6.679-1.955.722-5.492 1.424-5.493 1.424.002.002-.141-.074-.143-.076-2.405-1.17-2.475-6.38 1.894-8.059 1.916-.736 3.747-.332 5.818-.825 2.208-.525 4.766-2.18 5.805-4.344 1.165 3.458 2.565 8.866.054 12.21zm.042-13.28c-.293.698-.652 1.327-1.065 1.89-1.819-1.867-4.359-3.031-7.167-3.031-5.523 0-10.015 4.492-10.015 10.014 0 2.895 1.235 5.505 3.205 7.334l.22.194c-.366-.298-.423-.836-.126-1.203.299-.367.837-.423 1.203-.126.367.298.424.837.126 1.204-.296.367-.835.423-1.202.126l.149.132c1.742 1.468 3.988 2.354 6.44 2.354 5.278 0 9.613-4.108 9.984-9.292.274-2.539-.476-5.763-1.752-9.596"/>
  </symbol>
  <!-- Typescript SVG -->
  <symbol id="typescript-icon" viewBox="0 0 50 50">
    <path d="M45,4H5C4.447,4,4,4.448,4,5v40c0,0.552,0.447,1,1,1h40c0.553,0,1-0.448,1-1V5C46,4.448,45.553,4,45,4z M29,26.445h-5V42h-4
	    V26.445h-5V23h14V26.445z M30.121,41.112v-4.158c0,0,2.271,1.712,4.996,1.712c2.725,0,2.62-1.782,2.62-2.026
	    c0-2.586-7.721-2.586-7.721-8.315c0-7.791,11.25-4.717,11.25-4.717l-0.14,3.704c0,0-1.887-1.258-4.018-1.258s-2.9,1.013-2.9,2.096
	    c0,2.795,7.791,2.516,7.791,8.141C42,44.955,30.121,41.112,30.121,41.112z"
    />
  </symbol>
  <!-- Python SVG -->
  <symbol id="python-icon" viewBox="0 0 50 50">
    <path d="M24.5,2C15.8,2,14,6.5,14,9.1V14h10v1H9.1C5.8,15,2,17.6,2,25s3.8,10,7.1,10H15v-6c0-2.2,1.8-4,4-4l12,0c1.7,0,3-1.3,3-3V9.1C34,5.6,30.7,2,24.5,2z M20,11c-1.1,0-2-0.9-2-2c0-1.1,0.9-2,2-2c1.1,0,2,0.9,2,2C22,10.1,21.1,11,20,11z"/>
    <path d="M25.5,48c8.7,0,10.5-4.5,10.5-7.1V36H26v-1h14.9c3.3,0,7.1-2.6,7.1-10s-3.8-10-7.1-10H35v7c0,2.2-1.8,4-4,4l-12,0c-1.7,0-3,1.3-3,3v11.9C16,44.4,19.3,48,25.5,48z M30,39c1.1,0,2,0.9,2,2c0,1.1-0.9,2-2,2c-1.1,0-2-0.9-2-2C28,39.9,28.9,39,30,39z"/>
  </symbol>
</svg>