<svg xmlns="http://www.w3.org/2000/svg" xmlns:xlink="http://www.w3.org/1999/xlink" viewBox="0,0,256,256" width="26px" height="26px" fill-rule="nonzero"><g fill="#b77cff" fill-rule="nonzero" stroke="none" stroke-width="1" stroke-linecap="butt" stroke-linejoin="miter" stroke-miterlimit="10" stroke-dasharray="" stroke-dashoffset="0" font-family="none" font-weight="none" font-size="none" text-anchor="none" style="mix-blend-mode: normal"><g transform="scale(9.84615,9.84615)"><path d="M14.40625,0c1.37109,3.30859 -4.94531,5.33594 -5.53125,8.09375c-0.53516,2.53125 3.74609,5.5 3.75,5.5c-0.64844,-1.04687 -1.12891,-1.92969 -1.78125,-3.5625c-1.10156,-2.75781 6.73047,-5.24609 3.5625,-10.03125zM18.5625,4.59375c0,0 -5.5,0.35547 -5.78125,4.03125c-0.125,1.63672 1.45313,2.49609 1.5,3.6875c0.03516,0.97266 -0.96875,1.78125 -0.96875,1.78125c0,0 1.78906,-0.32812 2.34375,-1.8125c0.61328,-1.64844 -1.18359,-2.77344 -1,-4.09375c0.17578,-1.26172 3.90625,-3.59375 3.90625,-3.59375zM19.90625,13.0625c-0.57812,-0.02734 -1.23047,0.19141 -1.8125,0.625c1.14063,-0.25781 2.125,0.47266 2.125,1.3125c0,1.88281 -2.625,3.65625 -2.625,3.65625c0,0 4.0625,-0.46484 4.0625,-3.5625c0,-1.27734 -0.78906,-1.98437 -1.75,-2.03125zM9.09375,13.09375c-1.42187,0.05078 -4.25,0.28906 -4.25,1.40625c0,1.55469 6.61719,1.67578 11.34375,0.71875c0,0 1.25781,-0.91406 1.59375,-1.25c-3.09766,0.65625 -10.15625,0.75781 -10.15625,0.1875c0,-0.52344 2.28125,-1.0625 2.28125,-1.0625c0,0 -0.33984,-0.01562 -0.8125,0zM8.6875,15.96875c-0.77734,0 -1.9375,0.61719 -1.9375,1.21875c0,1.21094 5.83594,2.14063 10.15625,0.375l-1.5,-0.9375c-2.92969,0.97656 -8.31641,0.65234 -6.71875,-0.65625zM9.40625,18.6875c-1.0625,0 -1.75,0.68359 -1.75,1.1875c0,1.55078 6.32813,1.70313 8.84375,0.125l-1.59375,-1.0625c-1.87891,0.82422 -6.58594,0.94531 -5.5,-0.25zM5.84375,20.09375c-1.73047,-0.03516 -2.84375,0.76563 -2.84375,1.4375c0,3.57422 17.75,3.40234 17.75,-0.25c0,-0.60547 -0.69141,-0.89453 -0.9375,-1.03125c1.44922,3.49219 -14.5,3.21875 -14.5,1.15625c0,-0.46875 1.16406,-0.9375 2.25,-0.71875l-0.9375,-0.53125c-0.26953,-0.04297 -0.53516,-0.05859 -0.78125,-0.0625zM22.59375,22.5c-2.69531,2.66016 -9.53516,3.61328 -16.40625,1.96875c6.87109,2.92969 16.375,1.30078 16.40625,-1.96875z"></path></g></g></svg>