<svg xmlns="http://www.w3.org/2000/svg" xmlns:xlink="http://www.w3.org/1999/xlink" viewBox="0,0,256,256" width="48px" height="48px" fill-rule="nonzero"><g fill="#b77cff" fill-rule="nonzero" stroke="none" stroke-width="1" stroke-linecap="butt" stroke-linejoin="miter" stroke-miterlimit="10" stroke-dasharray="" stroke-dashoffset="0" font-family="none" font-weight="none" font-size="none" text-anchor="none" style="mix-blend-mode: normal"><g transform="scale(5.33333,5.33333)"><path d="M8.5,5c-0.41866,-0.00019 -0.81835,0.17458 -1.10248,0.48208c-0.28412,0.30749 -0.42683,0.71972 -0.39362,1.13706l2.5625,32.36133c0.04598,0.58848 0.43278,1.09531 0.98828,1.29492l12.93945,4.63672c0.32707,0.11715 0.68465,0.11715 1.01172,0l12.93945,-4.63672c0.5555,-0.19962 0.94231,-0.70644 0.98828,-1.29492l2.5625,-32.36133c0.03321,-0.41734 -0.10949,-0.82957 -0.39362,-1.13706c-0.28412,-0.30749 -0.68382,-0.48226 -1.10248,-0.48208zM10.125,8h27.75l-2.35547,29.77734l-11.51953,4.12891l-11.51953,-4.12891zM14.98047,13l0.90039,12h13.4082l-0.46875,6.38086l-4.81055,1.53906l-4.65039,-1.5293l-0.25,-3.39062h-3.00977l0.41992,5.60938l7.4707,2.4707l7.66992,-2.46094l0.85938,-11.61914h-13.85937l-0.43945,-6h14.53906l0.23047,-3z"></path></g></g></svg>