<svg xmlns="http://www.w3.org/2000/svg" xmlns:xlink="http://www.w3.org/1999/xlink" viewBox="0,0,256,256" width="48px" height="48px" fill-rule="nonzero"><g fill="#b77cff" fill-rule="nonzero" stroke="none" stroke-width="1" stroke-linecap="butt" stroke-linejoin="miter" stroke-miterlimit="10" stroke-dasharray="" stroke-dashoffset="0" font-family="none" font-weight="none" font-size="none" text-anchor="none" style="mix-blend-mode: normal"><g transform="scale(5.33333,5.33333)"><path d="M24,3c-3.72857,0 -5.75973,0.94706 -7.20703,1.57422h-0.00195c-1.30234,0.5679 -2.08624,1.74456 -2.42578,2.85547c-0.33954,1.11091 -0.36523,2.22096 -0.36523,3.21094v3.35938h-3.35937c-0.98997,0 -2.10002,0.0257 -3.21094,0.36523c-1.11091,0.33954 -2.28757,1.12339 -2.85547,2.42578v0.00195c-0.62716,1.44725 -1.57422,3.47846 -1.57422,7.20703c0,3.72857 0.94706,5.75973 1.57422,7.20703v0.00195c0.5679,1.30239 1.74456,2.08624 2.85547,2.42578c1.11091,0.33949 2.22096,0.36523 3.21094,0.36523h3.35938v3.35938c0,0.98997 0.0257,2.10003 0.36523,3.21094c0.33954,1.11091 1.12339,2.28757 2.42578,2.85547h0.00195c1.44725,0.62716 3.47846,1.57422 7.20703,1.57422c3.72857,0 5.75973,-0.94706 7.20703,-1.57422h0.00195c1.30239,-0.5679 2.08624,-1.74456 2.42578,-2.85547c0.33949,-1.11091 0.36523,-2.22096 0.36523,-3.21094v-3.35937h3.35938c0.98997,0 2.10003,-0.0257 3.21094,-0.36523c1.11091,-0.33954 2.28757,-1.12339 2.85547,-2.42578v-0.00195c0.62716,-1.44725 1.57422,-3.47846 1.57422,-7.20703c0,-3.72857 -0.94706,-5.75973 -1.57422,-7.20703v-0.00195c-0.5679,-1.30234 -1.74456,-2.08624 -2.85547,-2.42578c-1.11091,-0.33954 -2.22096,-0.36523 -3.21094,-0.36523h-3.35937v-3.35937c0,-0.98997 -0.0257,-2.10002 -0.36523,-3.21094c-0.33954,-1.11091 -1.12339,-2.28757 -2.42578,-2.85547h-0.00195c-1.44725,-0.62716 -3.47846,-1.57422 -7.20703,-1.57422zM24,6c3.26862,0 4.45902,0.65199 6.00977,1.32422c0.41761,0.1821 0.5804,0.40833 0.75586,0.98242c0.17546,0.57409 0.23438,1.43396 0.23438,2.33398v4.61328c-0.02645,0.16103 -0.02645,0.3253 0,0.48633v3.25977c0,1.95006 -1.54994,3.5 -3.5,3.5h-7c-3.57194,0 -6.5,2.92806 -6.5,6.5v2h-3.35937c-0.90003,0 -1.7599,-0.05891 -2.33398,-0.23437c-0.57409,-0.17546 -0.80032,-0.33825 -0.98242,-0.75586c-0.67223,-1.55075 -1.32422,-2.74114 -1.32422,-6.00977c0,-3.26862 0.65199,-4.45902 1.32422,-6.00977c0.1821,-0.41761 0.40833,-0.5804 0.98242,-0.75586c0.57409,-0.17546 1.43396,-0.23437 2.33398,-0.23437h12.85938c0.54095,0.00765 1.04412,-0.27656 1.31683,-0.74381c0.27271,-0.46725 0.27271,-1.04514 0,-1.51238c-0.27271,-0.46725 -0.77588,-0.75146 -1.31683,-0.74381h-6.5v-3.35937c0,-0.90003 0.05891,-1.7599 0.23438,-2.33398c0.17546,-0.57409 0.33825,-0.80032 0.75586,-0.98242c1.55075,-0.67223 2.74114,-1.32422 6.00977,-1.32422zM20.5,9c-0.82843,0 -1.5,0.67157 -1.5,1.5c0,0.82843 0.67157,1.5 1.5,1.5c0.82843,0 1.5,-0.67157 1.5,-1.5c0,-0.82843 -0.67157,-1.5 -1.5,-1.5zM34,17h3.35938c0.90003,0 1.7599,0.05891 2.33398,0.23438c0.57409,0.17546 0.80033,0.33825 0.98242,0.75586c0.67223,1.55075 1.32422,2.74114 1.32422,6.00977c0,3.26862 -0.65199,4.45902 -1.32422,6.00977c-0.1821,0.41761 -0.40833,0.5804 -0.98242,0.75586c-0.57409,0.17546 -1.43396,0.23438 -2.33398,0.23438h-12.85937c-0.54095,-0.00765 -1.04412,0.27656 -1.31683,0.74381c-0.27271,0.46725 -0.27271,1.04514 0,1.51238c0.27271,0.46725 0.77588,0.75146 1.31683,0.74381h6.5v3.35938c0,0.90003 -0.05891,1.7599 -0.23437,2.33398c-0.17546,0.57409 -0.33825,0.80033 -0.75586,0.98242c-1.55075,0.67223 -2.74114,1.32422 -6.00977,1.32422c-3.26862,0 -4.45902,-0.65199 -6.00977,-1.32422c-0.41761,-0.1821 -0.5804,-0.40833 -0.75586,-0.98242c-0.17546,-0.57409 -0.23437,-1.43396 -0.23437,-2.33398v-8.35937c0,-1.95006 1.54994,-3.5 3.5,-3.5h7c3.57194,0 6.5,-2.92806 6.5,-6.5zM27.5,36c-0.82843,0 -1.5,0.67157 -1.5,1.5c0,0.82843 0.67157,1.5 1.5,1.5c0.82843,0 1.5,-0.67157 1.5,-1.5c0,-0.82843 -0.67157,-1.5 -1.5,-1.5z"></path></g></g></svg>